<mxfile host="app.diagrams.net" modified="2023-06-20T13:34:17.578Z" agent="Mozilla/5.0 (Windows NT 10.0; Win64; x64; rv:109.0) Gecko/20100101 Firefox/114.0" version="21.3.8" etag="aF89jy1yIqtXBFiGrP_5" type="github">
  <diagram name="Page-1" id="UVs5AuvT_rS0sZajkgHY">
    <mxGraphModel>
      <root>
        <mxCell id="0" />
        <mxCell id="1" parent="0" />
      </root>
    </mxGraphModel>
  </diagram>
</mxfile>
